<?xml version="1.0" encoding="utf-8" standalone="no"?>
<!DOCTYPE svg PUBLIC "-//W3C//DTD SVG 1.1//EN"
  "http://www.w3.org/Graphics/SVG/1.1/DTD/svg11.dtd">
<!-- Created with matplotlib (https://matplotlib.org/) -->
<svg height="648pt" version="1.1" viewBox="0 0 864 648" width="864pt" xmlns="http://www.w3.org/2000/svg" xmlns:xlink="http://www.w3.org/1999/xlink">
 <defs>
  <style type="text/css">
*{stroke-linecap:butt;stroke-linejoin:round;}
  </style>
 </defs>
 <g id="figure_1">
  <g id="patch_1">
   <path d="M 0 648 
L 864 648 
L 864 0 
L 0 0 
z
" style="fill:#ffffff;"/>
  </g>
  <g id="axes_1">
   <g id="patch_2">
    <path d="M 108 567 
L 777.6 567 
L 777.6 77.76 
L 108 77.76 
z
" style="fill:#ffffff;"/>
   </g>
   <g id="matplotlib.axis_1">
    <g id="xtick_1">
     <g id="line2d_1">
      <path clip-path="url(#pdec2bf3409)" d="M 108 567 
L 108 77.76 
" style="fill:none;stroke:#b0b0b0;stroke-linecap:square;stroke-width:0.8;"/>
     </g>
     <g id="line2d_2">
      <defs>
       <path d="M 0 0 
L 0 3.5 
" id="me1d14521da" style="stroke:#000000;stroke-width:0.8;"/>
      </defs>
      <g>
       <use style="stroke:#000000;stroke-width:0.8;" x="108" xlink:href="#me1d14521da" y="567"/>
      </g>
     </g>
     <g id="text_1">
      <!-- 1200 -->
      <defs>
       <path d="M 12.40625 8.296875 
L 28.515625 8.296875 
L 28.515625 63.921875 
L 10.984375 60.40625 
L 10.984375 69.390625 
L 28.421875 72.90625 
L 38.28125 72.90625 
L 38.28125 8.296875 
L 54.390625 8.296875 
L 54.390625 0 
L 12.40625 0 
z
" id="DejaVuSans-49"/>
       <path d="M 19.1875 8.296875 
L 53.609375 8.296875 
L 53.609375 0 
L 7.328125 0 
L 7.328125 8.296875 
Q 12.9375 14.109375 22.625 23.890625 
Q 32.328125 33.6875 34.8125 36.53125 
Q 39.546875 41.84375 41.421875 45.53125 
Q 43.3125 49.21875 43.3125 52.78125 
Q 43.3125 58.59375 39.234375 62.25 
Q 35.15625 65.921875 28.609375 65.921875 
Q 23.96875 65.921875 18.8125 64.3125 
Q 13.671875 62.703125 7.8125 59.421875 
L 7.8125 69.390625 
Q 13.765625 71.78125 18.9375 73 
Q 24.125 74.21875 28.421875 74.21875 
Q 39.75 74.21875 46.484375 68.546875 
Q 53.21875 62.890625 53.21875 53.421875 
Q 53.21875 48.921875 51.53125 44.890625 
Q 49.859375 40.875 45.40625 35.40625 
Q 44.1875 33.984375 37.640625 27.21875 
Q 31.109375 20.453125 19.1875 8.296875 
z
" id="DejaVuSans-50"/>
       <path d="M 31.78125 66.40625 
Q 24.171875 66.40625 20.328125 58.90625 
Q 16.5 51.421875 16.5 36.375 
Q 16.5 21.390625 20.328125 13.890625 
Q 24.171875 6.390625 31.78125 6.390625 
Q 39.453125 6.390625 43.28125 13.890625 
Q 47.125 21.390625 47.125 36.375 
Q 47.125 51.421875 43.28125 58.90625 
Q 39.453125 66.40625 31.78125 66.40625 
z
M 31.78125 74.21875 
Q 44.046875 74.21875 50.515625 64.515625 
Q 56.984375 54.828125 56.984375 36.375 
Q 56.984375 17.96875 50.515625 8.265625 
Q 44.046875 -1.421875 31.78125 -1.421875 
Q 19.53125 -1.421875 13.0625 8.265625 
Q 6.59375 17.96875 6.59375 36.375 
Q 6.59375 54.828125 13.0625 64.515625 
Q 19.53125 74.21875 31.78125 74.21875 
z
" id="DejaVuSans-48"/>
      </defs>
      <g transform="translate(95.275 581.598438)scale(0.1 -0.1)">
       <use xlink:href="#DejaVuSans-49"/>
       <use x="63.623047" xlink:href="#DejaVuSans-50"/>
       <use x="127.246094" xlink:href="#DejaVuSans-48"/>
       <use x="190.869141" xlink:href="#DejaVuSans-48"/>
      </g>
     </g>
    </g>
    <g id="xtick_2">
     <g id="line2d_3">
      <path clip-path="url(#pdec2bf3409)" d="M 241.92 567 
L 241.92 77.76 
" style="fill:none;stroke:#b0b0b0;stroke-linecap:square;stroke-width:0.8;"/>
     </g>
     <g id="line2d_4">
      <g>
       <use style="stroke:#000000;stroke-width:0.8;" x="241.92" xlink:href="#me1d14521da" y="567"/>
      </g>
     </g>
     <g id="text_2">
      <!-- 1300 -->
      <defs>
       <path d="M 40.578125 39.3125 
Q 47.65625 37.796875 51.625 33 
Q 55.609375 28.21875 55.609375 21.1875 
Q 55.609375 10.40625 48.1875 4.484375 
Q 40.765625 -1.421875 27.09375 -1.421875 
Q 22.515625 -1.421875 17.65625 -0.515625 
Q 12.796875 0.390625 7.625 2.203125 
L 7.625 11.71875 
Q 11.71875 9.328125 16.59375 8.109375 
Q 21.484375 6.890625 26.8125 6.890625 
Q 36.078125 6.890625 40.9375 10.546875 
Q 45.796875 14.203125 45.796875 21.1875 
Q 45.796875 27.640625 41.28125 31.265625 
Q 36.765625 34.90625 28.71875 34.90625 
L 20.21875 34.90625 
L 20.21875 43.015625 
L 29.109375 43.015625 
Q 36.375 43.015625 40.234375 45.921875 
Q 44.09375 48.828125 44.09375 54.296875 
Q 44.09375 59.90625 40.109375 62.90625 
Q 36.140625 65.921875 28.71875 65.921875 
Q 24.65625 65.921875 20.015625 65.03125 
Q 15.375 64.15625 9.8125 62.3125 
L 9.8125 71.09375 
Q 15.4375 72.65625 20.34375 73.4375 
Q 25.25 74.21875 29.59375 74.21875 
Q 40.828125 74.21875 47.359375 69.109375 
Q 53.90625 64.015625 53.90625 55.328125 
Q 53.90625 49.265625 50.4375 45.09375 
Q 46.96875 40.921875 40.578125 39.3125 
z
" id="DejaVuSans-51"/>
      </defs>
      <g transform="translate(229.195 581.598438)scale(0.1 -0.1)">
       <use xlink:href="#DejaVuSans-49"/>
       <use x="63.623047" xlink:href="#DejaVuSans-51"/>
       <use x="127.246094" xlink:href="#DejaVuSans-48"/>
       <use x="190.869141" xlink:href="#DejaVuSans-48"/>
      </g>
     </g>
    </g>
    <g id="xtick_3">
     <g id="line2d_5">
      <path clip-path="url(#pdec2bf3409)" d="M 375.84 567 
L 375.84 77.76 
" style="fill:none;stroke:#b0b0b0;stroke-linecap:square;stroke-width:0.8;"/>
     </g>
     <g id="line2d_6">
      <g>
       <use style="stroke:#000000;stroke-width:0.8;" x="375.84" xlink:href="#me1d14521da" y="567"/>
      </g>
     </g>
     <g id="text_3">
      <!-- 1400 -->
      <defs>
       <path d="M 37.796875 64.3125 
L 12.890625 25.390625 
L 37.796875 25.390625 
z
M 35.203125 72.90625 
L 47.609375 72.90625 
L 47.609375 25.390625 
L 58.015625 25.390625 
L 58.015625 17.1875 
L 47.609375 17.1875 
L 47.609375 0 
L 37.796875 0 
L 37.796875 17.1875 
L 4.890625 17.1875 
L 4.890625 26.703125 
z
" id="DejaVuSans-52"/>
      </defs>
      <g transform="translate(363.115 581.598438)scale(0.1 -0.1)">
       <use xlink:href="#DejaVuSans-49"/>
       <use x="63.623047" xlink:href="#DejaVuSans-52"/>
       <use x="127.246094" xlink:href="#DejaVuSans-48"/>
       <use x="190.869141" xlink:href="#DejaVuSans-48"/>
      </g>
     </g>
    </g>
    <g id="xtick_4">
     <g id="line2d_7">
      <path clip-path="url(#pdec2bf3409)" d="M 509.76 567 
L 509.76 77.76 
" style="fill:none;stroke:#b0b0b0;stroke-linecap:square;stroke-width:0.8;"/>
     </g>
     <g id="line2d_8">
      <g>
       <use style="stroke:#000000;stroke-width:0.8;" x="509.76" xlink:href="#me1d14521da" y="567"/>
      </g>
     </g>
     <g id="text_4">
      <!-- 1500 -->
      <defs>
       <path d="M 10.796875 72.90625 
L 49.515625 72.90625 
L 49.515625 64.59375 
L 19.828125 64.59375 
L 19.828125 46.734375 
Q 21.96875 47.46875 24.109375 47.828125 
Q 26.265625 48.1875 28.421875 48.1875 
Q 40.625 48.1875 47.75 41.5 
Q 54.890625 34.8125 54.890625 23.390625 
Q 54.890625 11.625 47.5625 5.09375 
Q 40.234375 -1.421875 26.90625 -1.421875 
Q 22.3125 -1.421875 17.546875 -0.640625 
Q 12.796875 0.140625 7.71875 1.703125 
L 7.71875 11.625 
Q 12.109375 9.234375 16.796875 8.0625 
Q 21.484375 6.890625 26.703125 6.890625 
Q 35.15625 6.890625 40.078125 11.328125 
Q 45.015625 15.765625 45.015625 23.390625 
Q 45.015625 31 40.078125 35.4375 
Q 35.15625 39.890625 26.703125 39.890625 
Q 22.75 39.890625 18.8125 39.015625 
Q 14.890625 38.140625 10.796875 36.28125 
z
" id="DejaVuSans-53"/>
      </defs>
      <g transform="translate(497.035 581.598438)scale(0.1 -0.1)">
       <use xlink:href="#DejaVuSans-49"/>
       <use x="63.623047" xlink:href="#DejaVuSans-53"/>
       <use x="127.246094" xlink:href="#DejaVuSans-48"/>
       <use x="190.869141" xlink:href="#DejaVuSans-48"/>
      </g>
     </g>
    </g>
    <g id="xtick_5">
     <g id="line2d_9">
      <path clip-path="url(#pdec2bf3409)" d="M 643.68 567 
L 643.68 77.76 
" style="fill:none;stroke:#b0b0b0;stroke-linecap:square;stroke-width:0.8;"/>
     </g>
     <g id="line2d_10">
      <g>
       <use style="stroke:#000000;stroke-width:0.8;" x="643.68" xlink:href="#me1d14521da" y="567"/>
      </g>
     </g>
     <g id="text_5">
      <!-- 1600 -->
      <defs>
       <path d="M 33.015625 40.375 
Q 26.375 40.375 22.484375 35.828125 
Q 18.609375 31.296875 18.609375 23.390625 
Q 18.609375 15.53125 22.484375 10.953125 
Q 26.375 6.390625 33.015625 6.390625 
Q 39.65625 6.390625 43.53125 10.953125 
Q 47.40625 15.53125 47.40625 23.390625 
Q 47.40625 31.296875 43.53125 35.828125 
Q 39.65625 40.375 33.015625 40.375 
z
M 52.59375 71.296875 
L 52.59375 62.3125 
Q 48.875 64.0625 45.09375 64.984375 
Q 41.3125 65.921875 37.59375 65.921875 
Q 27.828125 65.921875 22.671875 59.328125 
Q 17.53125 52.734375 16.796875 39.40625 
Q 19.671875 43.65625 24.015625 45.921875 
Q 28.375 48.1875 33.59375 48.1875 
Q 44.578125 48.1875 50.953125 41.515625 
Q 57.328125 34.859375 57.328125 23.390625 
Q 57.328125 12.15625 50.6875 5.359375 
Q 44.046875 -1.421875 33.015625 -1.421875 
Q 20.359375 -1.421875 13.671875 8.265625 
Q 6.984375 17.96875 6.984375 36.375 
Q 6.984375 53.65625 15.1875 63.9375 
Q 23.390625 74.21875 37.203125 74.21875 
Q 40.921875 74.21875 44.703125 73.484375 
Q 48.484375 72.75 52.59375 71.296875 
z
" id="DejaVuSans-54"/>
      </defs>
      <g transform="translate(630.955 581.598438)scale(0.1 -0.1)">
       <use xlink:href="#DejaVuSans-49"/>
       <use x="63.623047" xlink:href="#DejaVuSans-54"/>
       <use x="127.246094" xlink:href="#DejaVuSans-48"/>
       <use x="190.869141" xlink:href="#DejaVuSans-48"/>
      </g>
     </g>
    </g>
    <g id="xtick_6">
     <g id="line2d_11">
      <path clip-path="url(#pdec2bf3409)" d="M 777.6 567 
L 777.6 77.76 
" style="fill:none;stroke:#b0b0b0;stroke-linecap:square;stroke-width:0.8;"/>
     </g>
     <g id="line2d_12">
      <g>
       <use style="stroke:#000000;stroke-width:0.8;" x="777.6" xlink:href="#me1d14521da" y="567"/>
      </g>
     </g>
     <g id="text_6">
      <!-- 1700 -->
      <defs>
       <path d="M 8.203125 72.90625 
L 55.078125 72.90625 
L 55.078125 68.703125 
L 28.609375 0 
L 18.3125 0 
L 43.21875 64.59375 
L 8.203125 64.59375 
z
" id="DejaVuSans-55"/>
      </defs>
      <g transform="translate(764.875 581.598438)scale(0.1 -0.1)">
       <use xlink:href="#DejaVuSans-49"/>
       <use x="63.623047" xlink:href="#DejaVuSans-55"/>
       <use x="127.246094" xlink:href="#DejaVuSans-48"/>
       <use x="190.869141" xlink:href="#DejaVuSans-48"/>
      </g>
     </g>
    </g>
    <g id="xtick_7">
     <g id="line2d_13">
      <path clip-path="url(#pdec2bf3409)" d="M 134.784 567 
L 134.784 77.76 
" style="fill:none;stroke:#b0b0b0;stroke-linecap:square;stroke-opacity:0.5;stroke-width:0.8;"/>
     </g>
     <g id="line2d_14">
      <defs>
       <path d="M 0 0 
L 0 2 
" id="mddfd7efecb" style="stroke:#000000;stroke-width:0.6;"/>
      </defs>
      <g>
       <use style="stroke:#000000;stroke-width:0.6;" x="134.784" xlink:href="#mddfd7efecb" y="567"/>
      </g>
     </g>
    </g>
    <g id="xtick_8">
     <g id="line2d_15">
      <path clip-path="url(#pdec2bf3409)" d="M 161.568 567 
L 161.568 77.76 
" style="fill:none;stroke:#b0b0b0;stroke-linecap:square;stroke-opacity:0.5;stroke-width:0.8;"/>
     </g>
     <g id="line2d_16">
      <g>
       <use style="stroke:#000000;stroke-width:0.6;" x="161.568" xlink:href="#mddfd7efecb" y="567"/>
      </g>
     </g>
    </g>
    <g id="xtick_9">
     <g id="line2d_17">
      <path clip-path="url(#pdec2bf3409)" d="M 188.352 567 
L 188.352 77.76 
" style="fill:none;stroke:#b0b0b0;stroke-linecap:square;stroke-opacity:0.5;stroke-width:0.8;"/>
     </g>
     <g id="line2d_18">
      <g>
       <use style="stroke:#000000;stroke-width:0.6;" x="188.352" xlink:href="#mddfd7efecb" y="567"/>
      </g>
     </g>
    </g>
    <g id="xtick_10">
     <g id="line2d_19">
      <path clip-path="url(#pdec2bf3409)" d="M 215.136 567 
L 215.136 77.76 
" style="fill:none;stroke:#b0b0b0;stroke-linecap:square;stroke-opacity:0.5;stroke-width:0.8;"/>
     </g>
     <g id="line2d_20">
      <g>
       <use style="stroke:#000000;stroke-width:0.6;" x="215.136" xlink:href="#mddfd7efecb" y="567"/>
      </g>
     </g>
    </g>
    <g id="xtick_11">
     <g id="line2d_21">
      <path clip-path="url(#pdec2bf3409)" d="M 268.704 567 
L 268.704 77.76 
" style="fill:none;stroke:#b0b0b0;stroke-linecap:square;stroke-opacity:0.5;stroke-width:0.8;"/>
     </g>
     <g id="line2d_22">
      <g>
       <use style="stroke:#000000;stroke-width:0.6;" x="268.704" xlink:href="#mddfd7efecb" y="567"/>
      </g>
     </g>
    </g>
    <g id="xtick_12">
     <g id="line2d_23">
      <path clip-path="url(#pdec2bf3409)" d="M 295.488 567 
L 295.488 77.76 
" style="fill:none;stroke:#b0b0b0;stroke-linecap:square;stroke-opacity:0.5;stroke-width:0.8;"/>
     </g>
     <g id="line2d_24">
      <g>
       <use style="stroke:#000000;stroke-width:0.6;" x="295.488" xlink:href="#mddfd7efecb" y="567"/>
      </g>
     </g>
    </g>
    <g id="xtick_13">
     <g id="line2d_25">
      <path clip-path="url(#pdec2bf3409)" d="M 322.272 567 
L 322.272 77.76 
" style="fill:none;stroke:#b0b0b0;stroke-linecap:square;stroke-opacity:0.5;stroke-width:0.8;"/>
     </g>
     <g id="line2d_26">
      <g>
       <use style="stroke:#000000;stroke-width:0.6;" x="322.272" xlink:href="#mddfd7efecb" y="567"/>
      </g>
     </g>
    </g>
    <g id="xtick_14">
     <g id="line2d_27">
      <path clip-path="url(#pdec2bf3409)" d="M 349.056 567 
L 349.056 77.76 
" style="fill:none;stroke:#b0b0b0;stroke-linecap:square;stroke-opacity:0.5;stroke-width:0.8;"/>
     </g>
     <g id="line2d_28">
      <g>
       <use style="stroke:#000000;stroke-width:0.6;" x="349.056" xlink:href="#mddfd7efecb" y="567"/>
      </g>
     </g>
    </g>
    <g id="xtick_15">
     <g id="line2d_29">
      <path clip-path="url(#pdec2bf3409)" d="M 402.624 567 
L 402.624 77.76 
" style="fill:none;stroke:#b0b0b0;stroke-linecap:square;stroke-opacity:0.5;stroke-width:0.8;"/>
     </g>
     <g id="line2d_30">
      <g>
       <use style="stroke:#000000;stroke-width:0.6;" x="402.624" xlink:href="#mddfd7efecb" y="567"/>
      </g>
     </g>
    </g>
    <g id="xtick_16">
     <g id="line2d_31">
      <path clip-path="url(#pdec2bf3409)" d="M 429.408 567 
L 429.408 77.76 
" style="fill:none;stroke:#b0b0b0;stroke-linecap:square;stroke-opacity:0.5;stroke-width:0.8;"/>
     </g>
     <g id="line2d_32">
      <g>
       <use style="stroke:#000000;stroke-width:0.6;" x="429.408" xlink:href="#mddfd7efecb" y="567"/>
      </g>
     </g>
    </g>
    <g id="xtick_17">
     <g id="line2d_33">
      <path clip-path="url(#pdec2bf3409)" d="M 456.192 567 
L 456.192 77.76 
" style="fill:none;stroke:#b0b0b0;stroke-linecap:square;stroke-opacity:0.5;stroke-width:0.8;"/>
     </g>
     <g id="line2d_34">
      <g>
       <use style="stroke:#000000;stroke-width:0.6;" x="456.192" xlink:href="#mddfd7efecb" y="567"/>
      </g>
     </g>
    </g>
    <g id="xtick_18">
     <g id="line2d_35">
      <path clip-path="url(#pdec2bf3409)" d="M 482.976 567 
L 482.976 77.76 
" style="fill:none;stroke:#b0b0b0;stroke-linecap:square;stroke-opacity:0.5;stroke-width:0.8;"/>
     </g>
     <g id="line2d_36">
      <g>
       <use style="stroke:#000000;stroke-width:0.6;" x="482.976" xlink:href="#mddfd7efecb" y="567"/>
      </g>
     </g>
    </g>
    <g id="xtick_19">
     <g id="line2d_37">
      <path clip-path="url(#pdec2bf3409)" d="M 536.544 567 
L 536.544 77.76 
" style="fill:none;stroke:#b0b0b0;stroke-linecap:square;stroke-opacity:0.5;stroke-width:0.8;"/>
     </g>
     <g id="line2d_38">
      <g>
       <use style="stroke:#000000;stroke-width:0.6;" x="536.544" xlink:href="#mddfd7efecb" y="567"/>
      </g>
     </g>
    </g>
    <g id="xtick_20">
     <g id="line2d_39">
      <path clip-path="url(#pdec2bf3409)" d="M 563.328 567 
L 563.328 77.76 
" style="fill:none;stroke:#b0b0b0;stroke-linecap:square;stroke-opacity:0.5;stroke-width:0.8;"/>
     </g>
     <g id="line2d_40">
      <g>
       <use style="stroke:#000000;stroke-width:0.6;" x="563.328" xlink:href="#mddfd7efecb" y="567"/>
      </g>
     </g>
    </g>
    <g id="xtick_21">
     <g id="line2d_41">
      <path clip-path="url(#pdec2bf3409)" d="M 590.112 567 
L 590.112 77.76 
" style="fill:none;stroke:#b0b0b0;stroke-linecap:square;stroke-opacity:0.5;stroke-width:0.8;"/>
     </g>
     <g id="line2d_42">
      <g>
       <use style="stroke:#000000;stroke-width:0.6;" x="590.112" xlink:href="#mddfd7efecb" y="567"/>
      </g>
     </g>
    </g>
    <g id="xtick_22">
     <g id="line2d_43">
      <path clip-path="url(#pdec2bf3409)" d="M 616.896 567 
L 616.896 77.76 
" style="fill:none;stroke:#b0b0b0;stroke-linecap:square;stroke-opacity:0.5;stroke-width:0.8;"/>
     </g>
     <g id="line2d_44">
      <g>
       <use style="stroke:#000000;stroke-width:0.6;" x="616.896" xlink:href="#mddfd7efecb" y="567"/>
      </g>
     </g>
    </g>
    <g id="xtick_23">
     <g id="line2d_45">
      <path clip-path="url(#pdec2bf3409)" d="M 670.464 567 
L 670.464 77.76 
" style="fill:none;stroke:#b0b0b0;stroke-linecap:square;stroke-opacity:0.5;stroke-width:0.8;"/>
     </g>
     <g id="line2d_46">
      <g>
       <use style="stroke:#000000;stroke-width:0.6;" x="670.464" xlink:href="#mddfd7efecb" y="567"/>
      </g>
     </g>
    </g>
    <g id="xtick_24">
     <g id="line2d_47">
      <path clip-path="url(#pdec2bf3409)" d="M 697.248 567 
L 697.248 77.76 
" style="fill:none;stroke:#b0b0b0;stroke-linecap:square;stroke-opacity:0.5;stroke-width:0.8;"/>
     </g>
     <g id="line2d_48">
      <g>
       <use style="stroke:#000000;stroke-width:0.6;" x="697.248" xlink:href="#mddfd7efecb" y="567"/>
      </g>
     </g>
    </g>
    <g id="xtick_25">
     <g id="line2d_49">
      <path clip-path="url(#pdec2bf3409)" d="M 724.032 567 
L 724.032 77.76 
" style="fill:none;stroke:#b0b0b0;stroke-linecap:square;stroke-opacity:0.5;stroke-width:0.8;"/>
     </g>
     <g id="line2d_50">
      <g>
       <use style="stroke:#000000;stroke-width:0.6;" x="724.032" xlink:href="#mddfd7efecb" y="567"/>
      </g>
     </g>
    </g>
    <g id="xtick_26">
     <g id="line2d_51">
      <path clip-path="url(#pdec2bf3409)" d="M 750.816 567 
L 750.816 77.76 
" style="fill:none;stroke:#b0b0b0;stroke-linecap:square;stroke-opacity:0.5;stroke-width:0.8;"/>
     </g>
     <g id="line2d_52">
      <g>
       <use style="stroke:#000000;stroke-width:0.6;" x="750.816" xlink:href="#mddfd7efecb" y="567"/>
      </g>
     </g>
    </g>
    <g id="text_7">
     <!-- system frame -->
     <defs>
      <path d="M 44.28125 53.078125 
L 44.28125 44.578125 
Q 40.484375 46.53125 36.375 47.5 
Q 32.28125 48.484375 27.875 48.484375 
Q 21.1875 48.484375 17.84375 46.4375 
Q 14.5 44.390625 14.5 40.28125 
Q 14.5 37.15625 16.890625 35.375 
Q 19.28125 33.59375 26.515625 31.984375 
L 29.59375 31.296875 
Q 39.15625 29.25 43.1875 25.515625 
Q 47.21875 21.78125 47.21875 15.09375 
Q 47.21875 7.46875 41.1875 3.015625 
Q 35.15625 -1.421875 24.609375 -1.421875 
Q 20.21875 -1.421875 15.453125 -0.5625 
Q 10.6875 0.296875 5.421875 2 
L 5.421875 11.28125 
Q 10.40625 8.6875 15.234375 7.390625 
Q 20.0625 6.109375 24.8125 6.109375 
Q 31.15625 6.109375 34.5625 8.28125 
Q 37.984375 10.453125 37.984375 14.40625 
Q 37.984375 18.0625 35.515625 20.015625 
Q 33.0625 21.96875 24.703125 23.78125 
L 21.578125 24.515625 
Q 13.234375 26.265625 9.515625 29.90625 
Q 5.8125 33.546875 5.8125 39.890625 
Q 5.8125 47.609375 11.28125 51.796875 
Q 16.75 56 26.8125 56 
Q 31.78125 56 36.171875 55.265625 
Q 40.578125 54.546875 44.28125 53.078125 
z
" id="DejaVuSans-115"/>
      <path d="M 32.171875 -5.078125 
Q 28.375 -14.84375 24.75 -17.8125 
Q 21.140625 -20.796875 15.09375 -20.796875 
L 7.90625 -20.796875 
L 7.90625 -13.28125 
L 13.1875 -13.28125 
Q 16.890625 -13.28125 18.9375 -11.515625 
Q 21 -9.765625 23.484375 -3.21875 
L 25.09375 0.875 
L 2.984375 54.6875 
L 12.5 54.6875 
L 29.59375 11.921875 
L 46.6875 54.6875 
L 56.203125 54.6875 
z
" id="DejaVuSans-121"/>
      <path d="M 18.3125 70.21875 
L 18.3125 54.6875 
L 36.8125 54.6875 
L 36.8125 47.703125 
L 18.3125 47.703125 
L 18.3125 18.015625 
Q 18.3125 11.328125 20.140625 9.421875 
Q 21.96875 7.515625 27.59375 7.515625 
L 36.8125 7.515625 
L 36.8125 0 
L 27.59375 0 
Q 17.1875 0 13.234375 3.875 
Q 9.28125 7.765625 9.28125 18.015625 
L 9.28125 47.703125 
L 2.6875 47.703125 
L 2.6875 54.6875 
L 9.28125 54.6875 
L 9.28125 70.21875 
z
" id="DejaVuSans-116"/>
      <path d="M 56.203125 29.59375 
L 56.203125 25.203125 
L 14.890625 25.203125 
Q 15.484375 15.921875 20.484375 11.0625 
Q 25.484375 6.203125 34.421875 6.203125 
Q 39.59375 6.203125 44.453125 7.46875 
Q 49.3125 8.734375 54.109375 11.28125 
L 54.109375 2.78125 
Q 49.265625 0.734375 44.1875 -0.34375 
Q 39.109375 -1.421875 33.890625 -1.421875 
Q 20.796875 -1.421875 13.15625 6.1875 
Q 5.515625 13.8125 5.515625 26.8125 
Q 5.515625 40.234375 12.765625 48.109375 
Q 20.015625 56 32.328125 56 
Q 43.359375 56 49.78125 48.890625 
Q 56.203125 41.796875 56.203125 29.59375 
z
M 47.21875 32.234375 
Q 47.125 39.59375 43.09375 43.984375 
Q 39.0625 48.390625 32.421875 48.390625 
Q 24.90625 48.390625 20.390625 44.140625 
Q 15.875 39.890625 15.1875 32.171875 
z
" id="DejaVuSans-101"/>
      <path d="M 52 44.1875 
Q 55.375 50.25 60.0625 53.125 
Q 64.75 56 71.09375 56 
Q 79.640625 56 84.28125 50.015625 
Q 88.921875 44.046875 88.921875 33.015625 
L 88.921875 0 
L 79.890625 0 
L 79.890625 32.71875 
Q 79.890625 40.578125 77.09375 44.375 
Q 74.3125 48.1875 68.609375 48.1875 
Q 61.625 48.1875 57.5625 43.546875 
Q 53.515625 38.921875 53.515625 30.90625 
L 53.515625 0 
L 44.484375 0 
L 44.484375 32.71875 
Q 44.484375 40.625 41.703125 44.40625 
Q 38.921875 48.1875 33.109375 48.1875 
Q 26.21875 48.1875 22.15625 43.53125 
Q 18.109375 38.875 18.109375 30.90625 
L 18.109375 0 
L 9.078125 0 
L 9.078125 54.6875 
L 18.109375 54.6875 
L 18.109375 46.1875 
Q 21.1875 51.21875 25.484375 53.609375 
Q 29.78125 56 35.6875 56 
Q 41.65625 56 45.828125 52.96875 
Q 50 49.953125 52 44.1875 
z
" id="DejaVuSans-109"/>
      <path id="DejaVuSans-32"/>
      <path d="M 37.109375 75.984375 
L 37.109375 68.5 
L 28.515625 68.5 
Q 23.6875 68.5 21.796875 66.546875 
Q 19.921875 64.59375 19.921875 59.515625 
L 19.921875 54.6875 
L 34.71875 54.6875 
L 34.71875 47.703125 
L 19.921875 47.703125 
L 19.921875 0 
L 10.890625 0 
L 10.890625 47.703125 
L 2.296875 47.703125 
L 2.296875 54.6875 
L 10.890625 54.6875 
L 10.890625 58.5 
Q 10.890625 67.625 15.140625 71.796875 
Q 19.390625 75.984375 28.609375 75.984375 
z
" id="DejaVuSans-102"/>
      <path d="M 41.109375 46.296875 
Q 39.59375 47.171875 37.8125 47.578125 
Q 36.03125 48 33.890625 48 
Q 26.265625 48 22.1875 43.046875 
Q 18.109375 38.09375 18.109375 28.8125 
L 18.109375 0 
L 9.078125 0 
L 9.078125 54.6875 
L 18.109375 54.6875 
L 18.109375 46.1875 
Q 20.953125 51.171875 25.484375 53.578125 
Q 30.03125 56 36.53125 56 
Q 37.453125 56 38.578125 55.875 
Q 39.703125 55.765625 41.0625 55.515625 
z
" id="DejaVuSans-114"/>
      <path d="M 34.28125 27.484375 
Q 23.390625 27.484375 19.1875 25 
Q 14.984375 22.515625 14.984375 16.5 
Q 14.984375 11.71875 18.140625 8.90625 
Q 21.296875 6.109375 26.703125 6.109375 
Q 34.1875 6.109375 38.703125 11.40625 
Q 43.21875 16.703125 43.21875 25.484375 
L 43.21875 27.484375 
z
M 52.203125 31.203125 
L 52.203125 0 
L 43.21875 0 
L 43.21875 8.296875 
Q 40.140625 3.328125 35.546875 0.953125 
Q 30.953125 -1.421875 24.3125 -1.421875 
Q 15.921875 -1.421875 10.953125 3.296875 
Q 6 8.015625 6 15.921875 
Q 6 25.140625 12.171875 29.828125 
Q 18.359375 34.515625 30.609375 34.515625 
L 43.21875 34.515625 
L 43.21875 35.40625 
Q 43.21875 41.609375 39.140625 45 
Q 35.0625 48.390625 27.6875 48.390625 
Q 23 48.390625 18.546875 47.265625 
Q 14.109375 46.140625 10.015625 43.890625 
L 10.015625 52.203125 
Q 14.9375 54.109375 19.578125 55.046875 
Q 24.21875 56 28.609375 56 
Q 40.484375 56 46.34375 49.84375 
Q 52.203125 43.703125 52.203125 31.203125 
z
" id="DejaVuSans-97"/>
     </defs>
     <g transform="translate(387.61375 599.835625)scale(0.16 -0.16)">
      <use xlink:href="#DejaVuSans-115"/>
      <use x="52.099609" xlink:href="#DejaVuSans-121"/>
      <use x="111.279297" xlink:href="#DejaVuSans-115"/>
      <use x="163.378906" xlink:href="#DejaVuSans-116"/>
      <use x="202.587891" xlink:href="#DejaVuSans-101"/>
      <use x="264.111328" xlink:href="#DejaVuSans-109"/>
      <use x="361.523438" xlink:href="#DejaVuSans-32"/>
      <use x="393.310547" xlink:href="#DejaVuSans-102"/>
      <use x="428.515625" xlink:href="#DejaVuSans-114"/>
      <use x="469.628906" xlink:href="#DejaVuSans-97"/>
      <use x="530.908203" xlink:href="#DejaVuSans-109"/>
      <use x="628.320312" xlink:href="#DejaVuSans-101"/>
     </g>
    </g>
   </g>
   <g id="matplotlib.axis_2">
    <g id="ytick_1">
     <g id="line2d_53">
      <path clip-path="url(#pdec2bf3409)" d="M 108 567 
L 777.6 567 
" style="fill:none;stroke:#b0b0b0;stroke-linecap:square;stroke-width:0.8;"/>
     </g>
     <g id="line2d_54">
      <defs>
       <path d="M 0 0 
L -3.5 0 
" id="m82ac268b0b" style="stroke:#000000;stroke-width:0.8;"/>
      </defs>
      <g>
       <use style="stroke:#000000;stroke-width:0.8;" x="108" xlink:href="#m82ac268b0b" y="567"/>
      </g>
     </g>
     <g id="text_8">
      <!-- 45000 -->
      <g transform="translate(69.1875 570.799219)scale(0.1 -0.1)">
       <use xlink:href="#DejaVuSans-52"/>
       <use x="63.623047" xlink:href="#DejaVuSans-53"/>
       <use x="127.246094" xlink:href="#DejaVuSans-48"/>
       <use x="190.869141" xlink:href="#DejaVuSans-48"/>
       <use x="254.492188" xlink:href="#DejaVuSans-48"/>
      </g>
     </g>
    </g>
    <g id="ytick_2">
     <g id="line2d_55">
      <path clip-path="url(#pdec2bf3409)" d="M 108 469.152 
L 777.6 469.152 
" style="fill:none;stroke:#b0b0b0;stroke-linecap:square;stroke-width:0.8;"/>
     </g>
     <g id="line2d_56">
      <g>
       <use style="stroke:#000000;stroke-width:0.8;" x="108" xlink:href="#m82ac268b0b" y="469.152"/>
      </g>
     </g>
     <g id="text_9">
      <!-- 46000 -->
      <g transform="translate(69.1875 472.951219)scale(0.1 -0.1)">
       <use xlink:href="#DejaVuSans-52"/>
       <use x="63.623047" xlink:href="#DejaVuSans-54"/>
       <use x="127.246094" xlink:href="#DejaVuSans-48"/>
       <use x="190.869141" xlink:href="#DejaVuSans-48"/>
       <use x="254.492188" xlink:href="#DejaVuSans-48"/>
      </g>
     </g>
    </g>
    <g id="ytick_3">
     <g id="line2d_57">
      <path clip-path="url(#pdec2bf3409)" d="M 108 371.304 
L 777.6 371.304 
" style="fill:none;stroke:#b0b0b0;stroke-linecap:square;stroke-width:0.8;"/>
     </g>
     <g id="line2d_58">
      <g>
       <use style="stroke:#000000;stroke-width:0.8;" x="108" xlink:href="#m82ac268b0b" y="371.304"/>
      </g>
     </g>
     <g id="text_10">
      <!-- 47000 -->
      <g transform="translate(69.1875 375.103219)scale(0.1 -0.1)">
       <use xlink:href="#DejaVuSans-52"/>
       <use x="63.623047" xlink:href="#DejaVuSans-55"/>
       <use x="127.246094" xlink:href="#DejaVuSans-48"/>
       <use x="190.869141" xlink:href="#DejaVuSans-48"/>
       <use x="254.492188" xlink:href="#DejaVuSans-48"/>
      </g>
     </g>
    </g>
    <g id="ytick_4">
     <g id="line2d_59">
      <path clip-path="url(#pdec2bf3409)" d="M 108 273.456 
L 777.6 273.456 
" style="fill:none;stroke:#b0b0b0;stroke-linecap:square;stroke-width:0.8;"/>
     </g>
     <g id="line2d_60">
      <g>
       <use style="stroke:#000000;stroke-width:0.8;" x="108" xlink:href="#m82ac268b0b" y="273.456"/>
      </g>
     </g>
     <g id="text_11">
      <!-- 48000 -->
      <defs>
       <path d="M 31.78125 34.625 
Q 24.75 34.625 20.71875 30.859375 
Q 16.703125 27.09375 16.703125 20.515625 
Q 16.703125 13.921875 20.71875 10.15625 
Q 24.75 6.390625 31.78125 6.390625 
Q 38.8125 6.390625 42.859375 10.171875 
Q 46.921875 13.96875 46.921875 20.515625 
Q 46.921875 27.09375 42.890625 30.859375 
Q 38.875 34.625 31.78125 34.625 
z
M 21.921875 38.8125 
Q 15.578125 40.375 12.03125 44.71875 
Q 8.5 49.078125 8.5 55.328125 
Q 8.5 64.0625 14.71875 69.140625 
Q 20.953125 74.21875 31.78125 74.21875 
Q 42.671875 74.21875 48.875 69.140625 
Q 55.078125 64.0625 55.078125 55.328125 
Q 55.078125 49.078125 51.53125 44.71875 
Q 48 40.375 41.703125 38.8125 
Q 48.828125 37.15625 52.796875 32.3125 
Q 56.78125 27.484375 56.78125 20.515625 
Q 56.78125 9.90625 50.3125 4.234375 
Q 43.84375 -1.421875 31.78125 -1.421875 
Q 19.734375 -1.421875 13.25 4.234375 
Q 6.78125 9.90625 6.78125 20.515625 
Q 6.78125 27.484375 10.78125 32.3125 
Q 14.796875 37.15625 21.921875 38.8125 
z
M 18.3125 54.390625 
Q 18.3125 48.734375 21.84375 45.5625 
Q 25.390625 42.390625 31.78125 42.390625 
Q 38.140625 42.390625 41.71875 45.5625 
Q 45.3125 48.734375 45.3125 54.390625 
Q 45.3125 60.0625 41.71875 63.234375 
Q 38.140625 66.40625 31.78125 66.40625 
Q 25.390625 66.40625 21.84375 63.234375 
Q 18.3125 60.0625 18.3125 54.390625 
z
" id="DejaVuSans-56"/>
      </defs>
      <g transform="translate(69.1875 277.255219)scale(0.1 -0.1)">
       <use xlink:href="#DejaVuSans-52"/>
       <use x="63.623047" xlink:href="#DejaVuSans-56"/>
       <use x="127.246094" xlink:href="#DejaVuSans-48"/>
       <use x="190.869141" xlink:href="#DejaVuSans-48"/>
       <use x="254.492188" xlink:href="#DejaVuSans-48"/>
      </g>
     </g>
    </g>
    <g id="ytick_5">
     <g id="line2d_61">
      <path clip-path="url(#pdec2bf3409)" d="M 108 175.608 
L 777.6 175.608 
" style="fill:none;stroke:#b0b0b0;stroke-linecap:square;stroke-width:0.8;"/>
     </g>
     <g id="line2d_62">
      <g>
       <use style="stroke:#000000;stroke-width:0.8;" x="108" xlink:href="#m82ac268b0b" y="175.608"/>
      </g>
     </g>
     <g id="text_12">
      <!-- 49000 -->
      <defs>
       <path d="M 10.984375 1.515625 
L 10.984375 10.5 
Q 14.703125 8.734375 18.5 7.8125 
Q 22.3125 6.890625 25.984375 6.890625 
Q 35.75 6.890625 40.890625 13.453125 
Q 46.046875 20.015625 46.78125 33.40625 
Q 43.953125 29.203125 39.59375 26.953125 
Q 35.25 24.703125 29.984375 24.703125 
Q 19.046875 24.703125 12.671875 31.3125 
Q 6.296875 37.9375 6.296875 49.421875 
Q 6.296875 60.640625 12.9375 67.421875 
Q 19.578125 74.21875 30.609375 74.21875 
Q 43.265625 74.21875 49.921875 64.515625 
Q 56.59375 54.828125 56.59375 36.375 
Q 56.59375 19.140625 48.40625 8.859375 
Q 40.234375 -1.421875 26.421875 -1.421875 
Q 22.703125 -1.421875 18.890625 -0.6875 
Q 15.09375 0.046875 10.984375 1.515625 
z
M 30.609375 32.421875 
Q 37.25 32.421875 41.125 36.953125 
Q 45.015625 41.5 45.015625 49.421875 
Q 45.015625 57.28125 41.125 61.84375 
Q 37.25 66.40625 30.609375 66.40625 
Q 23.96875 66.40625 20.09375 61.84375 
Q 16.21875 57.28125 16.21875 49.421875 
Q 16.21875 41.5 20.09375 36.953125 
Q 23.96875 32.421875 30.609375 32.421875 
z
" id="DejaVuSans-57"/>
      </defs>
      <g transform="translate(69.1875 179.407219)scale(0.1 -0.1)">
       <use xlink:href="#DejaVuSans-52"/>
       <use x="63.623047" xlink:href="#DejaVuSans-57"/>
       <use x="127.246094" xlink:href="#DejaVuSans-48"/>
       <use x="190.869141" xlink:href="#DejaVuSans-48"/>
       <use x="254.492188" xlink:href="#DejaVuSans-48"/>
      </g>
     </g>
    </g>
    <g id="ytick_6">
     <g id="line2d_63">
      <path clip-path="url(#pdec2bf3409)" d="M 108 77.76 
L 777.6 77.76 
" style="fill:none;stroke:#b0b0b0;stroke-linecap:square;stroke-width:0.8;"/>
     </g>
     <g id="line2d_64">
      <g>
       <use style="stroke:#000000;stroke-width:0.8;" x="108" xlink:href="#m82ac268b0b" y="77.76"/>
      </g>
     </g>
     <g id="text_13">
      <!-- 50000 -->
      <g transform="translate(69.1875 81.559219)scale(0.1 -0.1)">
       <use xlink:href="#DejaVuSans-53"/>
       <use x="63.623047" xlink:href="#DejaVuSans-48"/>
       <use x="127.246094" xlink:href="#DejaVuSans-48"/>
       <use x="190.869141" xlink:href="#DejaVuSans-48"/>
       <use x="254.492188" xlink:href="#DejaVuSans-48"/>
      </g>
     </g>
    </g>
    <g id="ytick_7">
     <g id="line2d_65">
      <path clip-path="url(#pdec2bf3409)" d="M 108 547.4304 
L 777.6 547.4304 
" style="fill:none;stroke:#b0b0b0;stroke-linecap:square;stroke-opacity:0.5;stroke-width:0.8;"/>
     </g>
     <g id="line2d_66">
      <defs>
       <path d="M 0 0 
L -2 0 
" id="mabb82b54b6" style="stroke:#000000;stroke-width:0.6;"/>
      </defs>
      <g>
       <use style="stroke:#000000;stroke-width:0.6;" x="108" xlink:href="#mabb82b54b6" y="547.4304"/>
      </g>
     </g>
    </g>
    <g id="ytick_8">
     <g id="line2d_67">
      <path clip-path="url(#pdec2bf3409)" d="M 108 527.8608 
L 777.6 527.8608 
" style="fill:none;stroke:#b0b0b0;stroke-linecap:square;stroke-opacity:0.5;stroke-width:0.8;"/>
     </g>
     <g id="line2d_68">
      <g>
       <use style="stroke:#000000;stroke-width:0.6;" x="108" xlink:href="#mabb82b54b6" y="527.8608"/>
      </g>
     </g>
    </g>
    <g id="ytick_9">
     <g id="line2d_69">
      <path clip-path="url(#pdec2bf3409)" d="M 108 508.2912 
L 777.6 508.2912 
" style="fill:none;stroke:#b0b0b0;stroke-linecap:square;stroke-opacity:0.5;stroke-width:0.8;"/>
     </g>
     <g id="line2d_70">
      <g>
       <use style="stroke:#000000;stroke-width:0.6;" x="108" xlink:href="#mabb82b54b6" y="508.2912"/>
      </g>
     </g>
    </g>
    <g id="ytick_10">
     <g id="line2d_71">
      <path clip-path="url(#pdec2bf3409)" d="M 108 488.7216 
L 777.6 488.7216 
" style="fill:none;stroke:#b0b0b0;stroke-linecap:square;stroke-opacity:0.5;stroke-width:0.8;"/>
     </g>
     <g id="line2d_72">
      <g>
       <use style="stroke:#000000;stroke-width:0.6;" x="108" xlink:href="#mabb82b54b6" y="488.7216"/>
      </g>
     </g>
    </g>
    <g id="ytick_11">
     <g id="line2d_73">
      <path clip-path="url(#pdec2bf3409)" d="M 108 449.5824 
L 777.6 449.5824 
" style="fill:none;stroke:#b0b0b0;stroke-linecap:square;stroke-opacity:0.5;stroke-width:0.8;"/>
     </g>
     <g id="line2d_74">
      <g>
       <use style="stroke:#000000;stroke-width:0.6;" x="108" xlink:href="#mabb82b54b6" y="449.5824"/>
      </g>
     </g>
    </g>
    <g id="ytick_12">
     <g id="line2d_75">
      <path clip-path="url(#pdec2bf3409)" d="M 108 430.0128 
L 777.6 430.0128 
" style="fill:none;stroke:#b0b0b0;stroke-linecap:square;stroke-opacity:0.5;stroke-width:0.8;"/>
     </g>
     <g id="line2d_76">
      <g>
       <use style="stroke:#000000;stroke-width:0.6;" x="108" xlink:href="#mabb82b54b6" y="430.0128"/>
      </g>
     </g>
    </g>
    <g id="ytick_13">
     <g id="line2d_77">
      <path clip-path="url(#pdec2bf3409)" d="M 108 410.4432 
L 777.6 410.4432 
" style="fill:none;stroke:#b0b0b0;stroke-linecap:square;stroke-opacity:0.5;stroke-width:0.8;"/>
     </g>
     <g id="line2d_78">
      <g>
       <use style="stroke:#000000;stroke-width:0.6;" x="108" xlink:href="#mabb82b54b6" y="410.4432"/>
      </g>
     </g>
    </g>
    <g id="ytick_14">
     <g id="line2d_79">
      <path clip-path="url(#pdec2bf3409)" d="M 108 390.8736 
L 777.6 390.8736 
" style="fill:none;stroke:#b0b0b0;stroke-linecap:square;stroke-opacity:0.5;stroke-width:0.8;"/>
     </g>
     <g id="line2d_80">
      <g>
       <use style="stroke:#000000;stroke-width:0.6;" x="108" xlink:href="#mabb82b54b6" y="390.8736"/>
      </g>
     </g>
    </g>
    <g id="ytick_15">
     <g id="line2d_81">
      <path clip-path="url(#pdec2bf3409)" d="M 108 351.7344 
L 777.6 351.7344 
" style="fill:none;stroke:#b0b0b0;stroke-linecap:square;stroke-opacity:0.5;stroke-width:0.8;"/>
     </g>
     <g id="line2d_82">
      <g>
       <use style="stroke:#000000;stroke-width:0.6;" x="108" xlink:href="#mabb82b54b6" y="351.7344"/>
      </g>
     </g>
    </g>
    <g id="ytick_16">
     <g id="line2d_83">
      <path clip-path="url(#pdec2bf3409)" d="M 108 332.1648 
L 777.6 332.1648 
" style="fill:none;stroke:#b0b0b0;stroke-linecap:square;stroke-opacity:0.5;stroke-width:0.8;"/>
     </g>
     <g id="line2d_84">
      <g>
       <use style="stroke:#000000;stroke-width:0.6;" x="108" xlink:href="#mabb82b54b6" y="332.1648"/>
      </g>
     </g>
    </g>
    <g id="ytick_17">
     <g id="line2d_85">
      <path clip-path="url(#pdec2bf3409)" d="M 108 312.5952 
L 777.6 312.5952 
" style="fill:none;stroke:#b0b0b0;stroke-linecap:square;stroke-opacity:0.5;stroke-width:0.8;"/>
     </g>
     <g id="line2d_86">
      <g>
       <use style="stroke:#000000;stroke-width:0.6;" x="108" xlink:href="#mabb82b54b6" y="312.5952"/>
      </g>
     </g>
    </g>
    <g id="ytick_18">
     <g id="line2d_87">
      <path clip-path="url(#pdec2bf3409)" d="M 108 293.0256 
L 777.6 293.0256 
" style="fill:none;stroke:#b0b0b0;stroke-linecap:square;stroke-opacity:0.5;stroke-width:0.8;"/>
     </g>
     <g id="line2d_88">
      <g>
       <use style="stroke:#000000;stroke-width:0.6;" x="108" xlink:href="#mabb82b54b6" y="293.0256"/>
      </g>
     </g>
    </g>
    <g id="ytick_19">
     <g id="line2d_89">
      <path clip-path="url(#pdec2bf3409)" d="M 108 253.8864 
L 777.6 253.8864 
" style="fill:none;stroke:#b0b0b0;stroke-linecap:square;stroke-opacity:0.5;stroke-width:0.8;"/>
     </g>
     <g id="line2d_90">
      <g>
       <use style="stroke:#000000;stroke-width:0.6;" x="108" xlink:href="#mabb82b54b6" y="253.8864"/>
      </g>
     </g>
    </g>
    <g id="ytick_20">
     <g id="line2d_91">
      <path clip-path="url(#pdec2bf3409)" d="M 108 234.3168 
L 777.6 234.3168 
" style="fill:none;stroke:#b0b0b0;stroke-linecap:square;stroke-opacity:0.5;stroke-width:0.8;"/>
     </g>
     <g id="line2d_92">
      <g>
       <use style="stroke:#000000;stroke-width:0.6;" x="108" xlink:href="#mabb82b54b6" y="234.3168"/>
      </g>
     </g>
    </g>
    <g id="ytick_21">
     <g id="line2d_93">
      <path clip-path="url(#pdec2bf3409)" d="M 108 214.7472 
L 777.6 214.7472 
" style="fill:none;stroke:#b0b0b0;stroke-linecap:square;stroke-opacity:0.5;stroke-width:0.8;"/>
     </g>
     <g id="line2d_94">
      <g>
       <use style="stroke:#000000;stroke-width:0.6;" x="108" xlink:href="#mabb82b54b6" y="214.7472"/>
      </g>
     </g>
    </g>
    <g id="ytick_22">
     <g id="line2d_95">
      <path clip-path="url(#pdec2bf3409)" d="M 108 195.1776 
L 777.6 195.1776 
" style="fill:none;stroke:#b0b0b0;stroke-linecap:square;stroke-opacity:0.5;stroke-width:0.8;"/>
     </g>
     <g id="line2d_96">
      <g>
       <use style="stroke:#000000;stroke-width:0.6;" x="108" xlink:href="#mabb82b54b6" y="195.1776"/>
      </g>
     </g>
    </g>
    <g id="ytick_23">
     <g id="line2d_97">
      <path clip-path="url(#pdec2bf3409)" d="M 108 156.0384 
L 777.6 156.0384 
" style="fill:none;stroke:#b0b0b0;stroke-linecap:square;stroke-opacity:0.5;stroke-width:0.8;"/>
     </g>
     <g id="line2d_98">
      <g>
       <use style="stroke:#000000;stroke-width:0.6;" x="108" xlink:href="#mabb82b54b6" y="156.0384"/>
      </g>
     </g>
    </g>
    <g id="ytick_24">
     <g id="line2d_99">
      <path clip-path="url(#pdec2bf3409)" d="M 108 136.4688 
L 777.6 136.4688 
" style="fill:none;stroke:#b0b0b0;stroke-linecap:square;stroke-opacity:0.5;stroke-width:0.8;"/>
     </g>
     <g id="line2d_100">
      <g>
       <use style="stroke:#000000;stroke-width:0.6;" x="108" xlink:href="#mabb82b54b6" y="136.4688"/>
      </g>
     </g>
    </g>
    <g id="ytick_25">
     <g id="line2d_101">
      <path clip-path="url(#pdec2bf3409)" d="M 108 116.8992 
L 777.6 116.8992 
" style="fill:none;stroke:#b0b0b0;stroke-linecap:square;stroke-opacity:0.5;stroke-width:0.8;"/>
     </g>
     <g id="line2d_102">
      <g>
       <use style="stroke:#000000;stroke-width:0.6;" x="108" xlink:href="#mabb82b54b6" y="116.8992"/>
      </g>
     </g>
    </g>
    <g id="ytick_26">
     <g id="line2d_103">
      <path clip-path="url(#pdec2bf3409)" d="M 108 97.3296 
L 777.6 97.3296 
" style="fill:none;stroke:#b0b0b0;stroke-linecap:square;stroke-opacity:0.5;stroke-width:0.8;"/>
     </g>
     <g id="line2d_104">
      <g>
       <use style="stroke:#000000;stroke-width:0.6;" x="108" xlink:href="#mabb82b54b6" y="97.3296"/>
      </g>
     </g>
    </g>
    <g id="text_14">
     <!-- cumulative RA transmit number -->
     <defs>
      <path d="M 48.78125 52.59375 
L 48.78125 44.1875 
Q 44.96875 46.296875 41.140625 47.34375 
Q 37.3125 48.390625 33.40625 48.390625 
Q 24.65625 48.390625 19.8125 42.84375 
Q 14.984375 37.3125 14.984375 27.296875 
Q 14.984375 17.28125 19.8125 11.734375 
Q 24.65625 6.203125 33.40625 6.203125 
Q 37.3125 6.203125 41.140625 7.25 
Q 44.96875 8.296875 48.78125 10.40625 
L 48.78125 2.09375 
Q 45.015625 0.34375 40.984375 -0.53125 
Q 36.96875 -1.421875 32.421875 -1.421875 
Q 20.0625 -1.421875 12.78125 6.34375 
Q 5.515625 14.109375 5.515625 27.296875 
Q 5.515625 40.671875 12.859375 48.328125 
Q 20.21875 56 33.015625 56 
Q 37.15625 56 41.109375 55.140625 
Q 45.0625 54.296875 48.78125 52.59375 
z
" id="DejaVuSans-99"/>
      <path d="M 8.5 21.578125 
L 8.5 54.6875 
L 17.484375 54.6875 
L 17.484375 21.921875 
Q 17.484375 14.15625 20.5 10.265625 
Q 23.53125 6.390625 29.59375 6.390625 
Q 36.859375 6.390625 41.078125 11.03125 
Q 45.3125 15.671875 45.3125 23.6875 
L 45.3125 54.6875 
L 54.296875 54.6875 
L 54.296875 0 
L 45.3125 0 
L 45.3125 8.40625 
Q 42.046875 3.421875 37.71875 1 
Q 33.40625 -1.421875 27.6875 -1.421875 
Q 18.265625 -1.421875 13.375 4.4375 
Q 8.5 10.296875 8.5 21.578125 
z
M 31.109375 56 
z
" id="DejaVuSans-117"/>
      <path d="M 9.421875 75.984375 
L 18.40625 75.984375 
L 18.40625 0 
L 9.421875 0 
z
" id="DejaVuSans-108"/>
      <path d="M 9.421875 54.6875 
L 18.40625 54.6875 
L 18.40625 0 
L 9.421875 0 
z
M 9.421875 75.984375 
L 18.40625 75.984375 
L 18.40625 64.59375 
L 9.421875 64.59375 
z
" id="DejaVuSans-105"/>
      <path d="M 2.984375 54.6875 
L 12.5 54.6875 
L 29.59375 8.796875 
L 46.6875 54.6875 
L 56.203125 54.6875 
L 35.6875 0 
L 23.484375 0 
z
" id="DejaVuSans-118"/>
      <path d="M 44.390625 34.1875 
Q 47.5625 33.109375 50.5625 29.59375 
Q 53.5625 26.078125 56.59375 19.921875 
L 66.609375 0 
L 56 0 
L 46.6875 18.703125 
Q 43.0625 26.03125 39.671875 28.421875 
Q 36.28125 30.8125 30.421875 30.8125 
L 19.671875 30.8125 
L 19.671875 0 
L 9.8125 0 
L 9.8125 72.90625 
L 32.078125 72.90625 
Q 44.578125 72.90625 50.734375 67.671875 
Q 56.890625 62.453125 56.890625 51.90625 
Q 56.890625 45.015625 53.6875 40.46875 
Q 50.484375 35.9375 44.390625 34.1875 
z
M 19.671875 64.796875 
L 19.671875 38.921875 
L 32.078125 38.921875 
Q 39.203125 38.921875 42.84375 42.21875 
Q 46.484375 45.515625 46.484375 51.90625 
Q 46.484375 58.296875 42.84375 61.546875 
Q 39.203125 64.796875 32.078125 64.796875 
z
" id="DejaVuSans-82"/>
      <path d="M 34.1875 63.1875 
L 20.796875 26.90625 
L 47.609375 26.90625 
z
M 28.609375 72.90625 
L 39.796875 72.90625 
L 67.578125 0 
L 57.328125 0 
L 50.6875 18.703125 
L 17.828125 18.703125 
L 11.1875 0 
L 0.78125 0 
z
" id="DejaVuSans-65"/>
      <path d="M 54.890625 33.015625 
L 54.890625 0 
L 45.90625 0 
L 45.90625 32.71875 
Q 45.90625 40.484375 42.875 44.328125 
Q 39.84375 48.1875 33.796875 48.1875 
Q 26.515625 48.1875 22.3125 43.546875 
Q 18.109375 38.921875 18.109375 30.90625 
L 18.109375 0 
L 9.078125 0 
L 9.078125 54.6875 
L 18.109375 54.6875 
L 18.109375 46.1875 
Q 21.34375 51.125 25.703125 53.5625 
Q 30.078125 56 35.796875 56 
Q 45.21875 56 50.046875 50.171875 
Q 54.890625 44.34375 54.890625 33.015625 
z
" id="DejaVuSans-110"/>
      <path d="M 48.6875 27.296875 
Q 48.6875 37.203125 44.609375 42.84375 
Q 40.53125 48.484375 33.40625 48.484375 
Q 26.265625 48.484375 22.1875 42.84375 
Q 18.109375 37.203125 18.109375 27.296875 
Q 18.109375 17.390625 22.1875 11.75 
Q 26.265625 6.109375 33.40625 6.109375 
Q 40.53125 6.109375 44.609375 11.75 
Q 48.6875 17.390625 48.6875 27.296875 
z
M 18.109375 46.390625 
Q 20.953125 51.265625 25.265625 53.625 
Q 29.59375 56 35.59375 56 
Q 45.5625 56 51.78125 48.09375 
Q 58.015625 40.1875 58.015625 27.296875 
Q 58.015625 14.40625 51.78125 6.484375 
Q 45.5625 -1.421875 35.59375 -1.421875 
Q 29.59375 -1.421875 25.265625 0.953125 
Q 20.953125 3.328125 18.109375 8.203125 
L 18.109375 0 
L 9.078125 0 
L 9.078125 75.984375 
L 18.109375 75.984375 
z
" id="DejaVuSans-98"/>
     </defs>
     <g transform="translate(61.86 450.13)rotate(-90)scale(0.16 -0.16)">
      <use xlink:href="#DejaVuSans-99"/>
      <use x="54.980469" xlink:href="#DejaVuSans-117"/>
      <use x="118.359375" xlink:href="#DejaVuSans-109"/>
      <use x="215.771484" xlink:href="#DejaVuSans-117"/>
      <use x="279.150391" xlink:href="#DejaVuSans-108"/>
      <use x="306.933594" xlink:href="#DejaVuSans-97"/>
      <use x="368.212891" xlink:href="#DejaVuSans-116"/>
      <use x="407.421875" xlink:href="#DejaVuSans-105"/>
      <use x="435.205078" xlink:href="#DejaVuSans-118"/>
      <use x="494.384766" xlink:href="#DejaVuSans-101"/>
      <use x="555.908203" xlink:href="#DejaVuSans-32"/>
      <use x="587.695312" xlink:href="#DejaVuSans-82"/>
      <use x="653.177734" xlink:href="#DejaVuSans-65"/>
      <use x="721.585938" xlink:href="#DejaVuSans-32"/>
      <use x="753.373047" xlink:href="#DejaVuSans-116"/>
      <use x="792.582031" xlink:href="#DejaVuSans-114"/>
      <use x="833.695312" xlink:href="#DejaVuSans-97"/>
      <use x="894.974609" xlink:href="#DejaVuSans-110"/>
      <use x="958.353516" xlink:href="#DejaVuSans-115"/>
      <use x="1010.453125" xlink:href="#DejaVuSans-109"/>
      <use x="1107.865234" xlink:href="#DejaVuSans-105"/>
      <use x="1135.648438" xlink:href="#DejaVuSans-116"/>
      <use x="1174.857422" xlink:href="#DejaVuSans-32"/>
      <use x="1206.644531" xlink:href="#DejaVuSans-110"/>
      <use x="1270.023438" xlink:href="#DejaVuSans-117"/>
      <use x="1333.402344" xlink:href="#DejaVuSans-109"/>
      <use x="1430.814453" xlink:href="#DejaVuSans-98"/>
      <use x="1494.291016" xlink:href="#DejaVuSans-101"/>
      <use x="1555.814453" xlink:href="#DejaVuSans-114"/>
     </g>
    </g>
   </g>
   <g id="line2d_105">
    <path clip-path="url(#pdec2bf3409)" d="M 106.6608 627.470064 
L 109.3392 621.012096 
L 110.6784 618.957288 
L 112.0176 617.587416 
L 113.3568 617.39172 
L 116.0352 610.933752 
L 117.3744 608.976792 
L 118.7136 607.60692 
L 120.0528 607.411224 
L 122.7312 601.148952 
L 124.0704 599.28984 
L 125.4096 597.919968 
L 126.7488 597.82212 
L 129.4272 591.657696 
L 130.7664 589.896432 
L 132.1056 588.624408 
L 133.4448 588.52656 
L 136.1232 582.557832 
L 137.4624 580.796568 
L 138.8016 579.524544 
L 140.1408 579.426696 
L 142.8192 573.555816 
L 144.1584 571.794552 
L 145.4976 570.42468 
L 146.8368 570.326832 
L 149.5152 564.455952 
L 150.8544 562.694688 
L 152.1936 561.422664 
L 153.5328 561.324816 
L 156.2112 555.453936 
L 157.5504 553.692672 
L 158.8896 552.420648 
L 160.2288 552.3228 
L 162.9072 546.45192 
L 164.2464 544.690656 
L 165.5856 543.51648 
L 166.9248 543.418632 
L 168.264 540.385344 
L 169.6032 537.6456 
L 170.9424 535.884336 
L 172.2816 534.905856 
L 173.6208 534.808008 
L 174.96 531.77472 
L 176.2992 529.132824 
L 177.6384 527.567256 
L 178.9776 526.588776 
L 180.3168 526.490928 
L 181.656 523.45764 
L 182.9952 520.815744 
L 184.3344 519.250176 
L 185.6736 518.369544 
L 187.0128 518.271696 
L 188.352 515.336256 
L 189.6912 512.69436 
L 191.0304 511.030944 
L 192.3696 510.150312 
L 193.7088 510.052464 
L 196.3872 504.572976 
L 197.7264 503.007408 
L 199.0656 502.126776 
L 200.4048 502.028928 
L 201.744 499.289184 
L 203.0832 496.842984 
L 204.4224 495.277416 
L 205.7616 494.396784 
L 207.1008 494.396784 
L 208.44 491.852736 
L 209.7792 489.602232 
L 211.1184 488.036664 
L 212.4576 487.156032 
L 213.7968 487.156032 
L 215.136 484.611984 
L 216.4752 482.36148 
L 217.8144 480.795912 
L 219.1536 480.110976 
L 220.4928 480.013128 
L 221.832 477.371232 
L 223.1712 475.120728 
L 224.5104 473.457312 
L 225.8496 472.870224 
L 227.1888 472.870224 
L 228.528 470.326176 
L 229.8672 468.075672 
L 231.2064 466.510104 
L 232.5456 465.923016 
L 233.8848 465.825168 
L 235.224 463.183272 
L 236.5632 461.030616 
L 237.9024 459.465048 
L 239.2416 458.87796 
L 240.5808 458.780112 
L 241.92 456.333912 
L 243.2592 454.376952 
L 244.5984 452.909232 
L 245.9376 452.322144 
L 247.2768 452.224296 
L 248.616 449.973792 
L 249.9552 448.11468 
L 251.2944 446.940504 
L 252.6336 446.255568 
L 253.9728 446.255568 
L 255.312 444.005064 
L 256.6512 442.2438 
L 257.9904 441.069624 
L 259.3296 440.482536 
L 260.6688 440.482536 
L 262.008 438.232032 
L 263.3472 436.470768 
L 264.6864 435.296592 
L 266.0256 434.611656 
L 267.3648 434.611656 
L 268.704 432.459 
L 270.0432 430.697736 
L 271.3824 429.621408 
L 272.7216 429.230016 
L 274.0608 429.230016 
L 275.4 427.07736 
L 276.7392 425.316096 
L 278.0784 424.239768 
L 279.4176 423.848376 
L 280.7568 423.848376 
L 282.096 421.793568 
L 283.4352 420.032304 
L 284.7744 418.955976 
L 286.1136 418.466736 
L 287.4528 418.466736 
L 288.792 416.411928 
L 290.1312 414.84636 
L 291.4704 413.770032 
L 292.8096 413.37864 
L 294.1488 413.37864 
L 295.488 411.225984 
L 296.8272 409.660416 
L 298.1664 408.681936 
L 299.5056 408.192696 
L 300.8448 408.094848 
L 302.184 406.04004 
L 303.5232 404.57232 
L 304.8624 403.789536 
L 306.2016 403.300296 
L 307.5408 403.300296 
L 308.88 401.441184 
L 310.2192 400.071312 
L 311.5584 399.19068 
L 312.8976 398.799288 
L 314.2368 398.799288 
L 315.576 396.940176 
L 316.9152 395.570304 
L 318.2544 394.885368 
L 319.5936 394.493976 
L 320.9328 394.493976 
L 322.272 392.732712 
L 323.6112 391.460688 
L 324.9504 390.775752 
L 326.2896 390.38436 
L 327.6288 390.38436 
L 328.968 388.818792 
L 330.3072 387.546768 
L 331.6464 386.861832 
L 332.9856 386.666136 
L 334.3248 386.666136 
L 335.664 385.198416 
L 337.0032 384.122088 
L 338.3424 383.339304 
L 339.6816 383.143608 
L 341.0208 383.143608 
L 342.36 381.675888 
L 343.6992 380.59956 
L 345.0384 380.11032 
L 346.3776 379.914624 
L 347.7168 379.914624 
L 349.056 378.446904 
L 350.3952 377.370576 
L 351.7344 376.881336 
L 353.0736 376.587792 
L 354.4128 376.587792 
L 355.752 375.120072 
L 357.0912 374.043744 
L 358.4304 373.554504 
L 359.7696 373.358808 
L 361.1088 373.358808 
L 362.448 371.891088 
L 363.7872 370.716912 
L 365.1264 370.32552 
L 367.8048 370.227672 
L 369.144 368.8578 
L 370.4832 367.87932 
L 373.1616 367.585776 
L 374.5008 367.585776 
L 375.84 366.215904 
L 377.1792 365.335272 
L 379.8576 365.041728 
L 381.1968 365.041728 
L 382.536 363.769704 
L 383.8752 362.889072 
L 386.5536 362.49768 
L 387.8928 362.49768 
L 389.232 361.225656 
L 390.5712 360.442872 
L 391.9104 360.149328 
L 394.5888 359.953632 
L 395.928 358.681608 
L 397.2672 357.800976 
L 399.9456 357.507432 
L 401.2848 357.507432 
L 402.624 356.235408 
L 403.9632 355.354776 
L 405.3024 355.061232 
L 407.9808 354.963384 
L 409.32 353.69136 
L 410.6592 353.006424 
L 414.6768 352.810728 
L 416.016 351.636552 
L 417.3552 351.049464 
L 420.0336 350.75592 
L 421.3728 350.75592 
L 422.712 349.581744 
L 424.0512 348.994656 
L 426.7296 348.701112 
L 428.0688 348.701112 
L 429.408 347.526936 
L 430.7472 347.037696 
L 433.4256 346.744152 
L 434.7648 346.744152 
L 436.104 345.667824 
L 438.7824 344.787192 
L 441.4608 344.689344 
L 442.8 343.613016 
L 444.1392 343.123776 
L 446.8176 342.830232 
L 448.1568 342.830232 
L 449.496 341.851752 
L 450.8352 341.264664 
L 453.5136 341.166816 
L 454.8528 341.166816 
L 456.192 340.286184 
L 457.5312 339.796944 
L 458.8704 339.601248 
L 461.5488 339.601248 
L 462.888 338.818464 
L 464.2272 338.427072 
L 466.9056 338.329224 
L 468.2448 338.329224 
L 469.584 337.54644 
L 470.9232 337.0572 
L 473.6016 336.959352 
L 474.9408 336.959352 
L 476.28 336.176568 
L 477.6192 335.687328 
L 481.6368 335.491632 
L 482.976 334.806696 
L 484.3152 334.415304 
L 486.9936 334.317456 
L 488.3328 334.317456 
L 489.672 333.63252 
L 491.0112 333.241128 
L 493.6896 333.14328 
L 495.0288 333.14328 
L 496.368 332.458344 
L 497.7072 332.066952 
L 499.0464 331.871256 
L 501.7248 331.871256 
L 504.4032 330.794928 
L 507.0816 330.69708 
L 508.4208 330.69708 
L 509.76 330.109992 
L 511.0992 329.7186 
L 513.7776 329.620752 
L 515.1168 329.620752 
L 516.456 329.033664 
L 517.7952 328.74012 
L 520.4736 328.642272 
L 521.8128 328.642272 
L 523.152 328.055184 
L 524.4912 327.76164 
L 527.1696 327.663792 
L 528.5088 327.663792 
L 529.848 327.076704 
L 531.1872 326.685312 
L 532.5264 326.489616 
L 535.2048 326.489616 
L 536.544 325.902528 
L 537.8832 325.608984 
L 541.9008 325.511136 
L 543.24 324.924048 
L 544.5792 324.532656 
L 547.2576 324.434808 
L 548.5968 324.434808 
L 549.936 323.945568 
L 551.2752 323.652024 
L 555.2928 323.652024 
L 557.9712 322.86924 
L 561.9888 322.86924 
L 564.6672 322.184304 
L 567.3456 322.086456 
L 568.6848 322.086456 
L 570.024 321.695064 
L 571.3632 321.499368 
L 575.3808 321.499368 
L 578.0592 320.814432 
L 580.7376 320.716584 
L 582.0768 320.716584 
L 584.7552 320.031648 
L 587.4336 319.9338 
L 588.7728 319.9338 
L 591.4512 319.44456 
L 595.4688 319.346712 
L 598.1472 318.857472 
L 600.8256 318.759624 
L 602.1648 318.759624 
L 604.8432 318.270384 
L 610.2 318.172536 
L 611.5392 317.878992 
L 616.896 317.781144 
L 619.5744 317.4876 
L 623.592 317.389752 
L 624.9312 317.194056 
L 628.9488 317.096208 
L 634.3056 316.802664 
L 638.3232 316.704816 
L 643.68 316.411272 
L 650.376 316.313424 
L 654.3936 316.117728 
L 658.4112 316.01988 
L 659.7504 315.726336 
L 663.768 315.628488 
L 666.4464 315.53064 
L 670.464 315.432792 
L 677.16 315.0414 
L 682.5168 314.943552 
L 693.2304 314.258616 
L 695.9088 314.160768 
L 701.2656 313.867224 
L 703.944 313.769376 
L 707.9616 313.57368 
L 711.9792 313.475832 
L 726.7104 312.497352 
L 729.3888 312.399504 
L 745.4592 311.323176 
L 749.4768 311.225328 
L 753.4944 311.029632 
L 757.512 310.931784 
L 758.8512 310.736088 
L 764.208 310.63824 
L 766.8864 310.540392 
L 770.904 310.442544 
L 772.2432 310.246848 
L 777.6 310.149 
L 778.9392 309.953304 
L 778.9392 309.953304 
" style="fill:none;stroke:#1f77b4;stroke-dasharray:1.5,2.475;stroke-dashoffset:0;stroke-width:1.5;"/>
   </g>
   <g id="line2d_106">
    <path clip-path="url(#pdec2bf3409)" d="M 175.528005 649 
L 176.2992 646.74612 
L 178.9776 640.288152 
L 180.3168 639.798912 
L 182.9952 631.971072 
L 184.3344 628.64424 
L 185.6736 625.7088 
L 187.0128 625.21956 
L 189.6912 617.489568 
L 191.0304 614.358432 
L 192.3696 611.52084 
L 193.7088 610.444512 
L 195.048 609.56388 
L 196.3872 609.172488 
L 199.0656 601.540344 
L 200.4048 598.507056 
L 201.744 595.767312 
L 203.0832 595.37592 
L 205.7616 587.939472 
L 208.44 582.264288 
L 209.7792 581.872896 
L 212.4576 574.632144 
L 213.7968 571.794552 
L 216.4752 569.544048 
L 217.8144 566.902152 
L 219.1536 566.608608 
L 221.832 559.367856 
L 224.5104 554.084064 
L 225.8496 553.79052 
L 228.528 546.647616 
L 231.2064 541.363824 
L 232.5456 541.07028 
L 235.224 533.927376 
L 236.5632 532.26396 
L 237.9024 530.991936 
L 240.5808 526.001688 
L 241.92 525.708144 
L 243.2592 522.087768 
L 244.5984 518.858784 
L 247.2768 513.966384 
L 248.616 513.67284 
L 249.9552 510.052464 
L 251.2944 506.82348 
L 253.9728 501.93108 
L 255.312 501.637536 
L 256.6512 498.01716 
L 257.9904 497.136528 
L 259.3296 496.0602 
L 260.6688 492.831216 
L 263.3472 488.134512 
L 264.6864 487.840968 
L 267.3648 481.089456 
L 270.0432 476.392752 
L 271.3824 476.099208 
L 272.7216 472.57668 
L 274.0608 469.445544 
L 275.4 466.999344 
L 276.7392 464.944536 
L 278.0784 464.74884 
L 280.7568 461.715552 
L 283.4352 455.257584 
L 284.7744 452.909232 
L 286.1136 450.854424 
L 287.4528 450.658728 
L 290.1312 444.494304 
L 291.4704 442.145952 
L 292.8096 440.091144 
L 294.1488 439.895448 
L 296.8272 433.731024 
L 298.1664 431.382672 
L 299.5056 429.327864 
L 302.184 426.685968 
L 303.5232 426.58812 
L 306.2016 420.619392 
L 307.5408 418.27104 
L 308.88 416.411928 
L 310.2192 416.31408 
L 312.8976 410.4432 
L 314.2368 408.094848 
L 315.576 406.235736 
L 316.9152 406.137888 
L 319.5936 400.267008 
L 320.9328 397.918656 
L 322.272 396.548784 
L 324.9504 393.221952 
L 326.2896 393.124104 
L 328.968 387.253224 
L 330.3072 385.00272 
L 331.6464 383.339304 
L 332.9856 383.241456 
L 335.664 377.370576 
L 337.0032 375.120072 
L 338.3424 373.456656 
L 339.6816 373.358808 
L 341.0208 370.32552 
L 342.36 367.585776 
L 343.6992 365.92236 
L 345.0384 363.9654 
L 346.3776 361.714896 
L 347.7168 360.05148 
L 349.056 359.953632 
L 351.7344 354.278448 
L 353.0736 352.027944 
L 354.4128 350.364528 
L 355.752 350.26668 
L 357.0912 347.33124 
L 358.4304 344.689344 
L 359.7696 342.43884 
L 361.1088 340.97112 
L 362.448 340.873272 
L 363.7872 338.03568 
L 365.1264 336.274416 
L 366.4656 334.904544 
L 367.8048 332.262648 
L 369.144 330.109992 
L 370.4832 328.642272 
L 371.8224 328.544424 
L 373.1616 325.902528 
L 374.5008 323.554176 
L 375.84 321.499368 
L 377.1792 320.031648 
L 378.5184 319.9338 
L 379.8576 317.291904 
L 382.536 312.986592 
L 383.8752 311.61672 
L 385.2144 311.518872 
L 387.8928 308.68128 
L 390.5712 303.984576 
L 391.9104 302.32116 
L 393.2496 301.146984 
L 394.5888 301.146984 
L 397.2672 296.45028 
L 398.6064 294.786864 
L 399.9456 293.612688 
L 401.2848 293.612688 
L 403.9632 289.11168 
L 405.3024 287.448264 
L 406.6416 286.371936 
L 778.9392 286.371936 
L 778.9392 286.371936 
" style="fill:none;stroke:#ff7f0e;stroke-dasharray:1.5,2.475;stroke-dashoffset:0;stroke-width:1.5;"/>
   </g>
   <g id="line2d_107">
    <path clip-path="url(#pdec2bf3409)" d="M 167.224965 649 
L 168.264 645.963336 
L 170.9424 639.603216 
L 172.2816 638.624736 
L 173.6208 637.45056 
L 174.96 636.96132 
L 177.6384 629.329176 
L 180.3168 623.066904 
L 181.656 622.577664 
L 184.3344 615.043368 
L 185.6736 611.814384 
L 187.0128 608.878944 
L 188.352 608.487552 
L 191.0304 600.953256 
L 192.3696 597.724272 
L 195.048 594.984528 
L 196.3872 592.342632 
L 197.7264 591.95124 
L 200.4048 584.416944 
L 201.744 581.383656 
L 203.0832 578.74176 
L 204.4224 578.350368 
L 207.1008 571.011768 
L 208.44 567.97848 
L 209.7792 565.336584 
L 211.1184 565.04304 
L 213.7968 557.802288 
L 215.136 556.334568 
L 216.4752 555.356088 
L 217.8144 552.420648 
L 219.1536 549.778752 
L 220.4928 549.485208 
L 223.1712 542.342304 
L 225.8496 536.862816 
L 227.1888 536.569272 
L 229.8672 529.622064 
L 232.5456 524.533968 
L 233.8848 524.240424 
L 235.224 520.815744 
L 236.5632 519.739416 
L 237.9024 518.271696 
L 239.2416 514.944864 
L 241.92 509.954616 
L 243.2592 509.661072 
L 245.9376 503.007408 
L 247.2768 500.46336 
L 248.616 498.212856 
L 249.9552 497.919312 
L 252.6336 491.265648 
L 255.312 486.568944 
L 256.6512 486.2754 
L 257.9904 485.101224 
L 259.3296 482.85072 
L 262.008 476.197056 
L 264.6864 471.500352 
L 266.0256 471.206808 
L 268.704 464.650992 
L 271.3824 459.954288 
L 272.7216 459.758592 
L 275.4 453.398472 
L 278.0784 448.897464 
L 279.4176 447.234048 
L 280.7568 445.962024 
L 282.096 445.766328 
L 284.7744 439.504056 
L 286.1136 437.155704 
L 287.4528 435.100896 
L 288.792 434.9052 
L 291.4704 428.642928 
L 292.8096 426.294576 
L 294.1488 424.239768 
L 295.488 424.14192 
L 298.1664 417.879648 
L 299.5056 415.531296 
L 300.8448 414.063576 
L 302.184 412.302312 
L 303.5232 410.247504 
L 304.8624 410.149656 
L 306.2016 406.920672 
L 307.5408 403.985232 
L 308.88 401.734728 
L 310.2192 399.777768 
L 311.5584 399.67992 
L 312.8976 396.450936 
L 314.2368 393.515496 
L 315.576 391.264992 
L 316.9152 389.40588 
L 318.2544 389.308032 
L 320.9328 383.241456 
L 323.6112 380.59956 
L 324.9504 378.349056 
L 326.2896 376.587792 
L 327.6288 376.489944 
L 330.3072 370.619064 
L 331.6464 368.36856 
L 332.9856 366.802992 
L 334.3248 366.705144 
L 335.664 363.671856 
L 337.0032 360.932112 
L 338.3424 358.681608 
L 339.6816 357.11604 
L 341.0208 357.018192 
L 342.36 354.278448 
L 343.6992 352.419336 
L 345.0384 350.75592 
L 346.3776 348.114024 
L 347.7168 345.961368 
L 349.056 344.591496 
L 350.3952 344.493648 
L 353.0736 339.209856 
L 354.4128 337.0572 
L 355.752 335.785176 
L 357.0912 335.687328 
L 359.7696 330.501384 
L 361.1088 328.348728 
L 362.448 327.076704 
L 363.7872 326.978856 
L 365.1264 325.119744 
L 366.4656 323.456328 
L 369.144 318.368232 
L 370.4832 316.411272 
L 371.8224 315.237096 
L 373.1616 315.139248 
L 375.84 310.149 
L 377.1792 308.19204 
L 378.5184 307.017864 
L 379.8576 306.920016 
L 382.536 302.027616 
L 383.8752 300.070656 
L 385.2144 298.994328 
L 386.5536 297.135216 
L 387.8928 294.786864 
L 389.232 294.786864 
L 390.5712 292.340664 
L 393.2496 288.231048 
L 394.5888 287.252568 
L 395.928 287.252568 
L 397.2672 284.806368 
L 398.6064 282.653712 
L 399.9456 280.892448 
L 401.2848 279.913968 
L 402.624 279.913968 
L 403.9632 277.467768 
L 405.3024 275.315112 
L 406.6416 273.553848 
L 407.9808 271.205496 
L 409.32 270.03132 
L 410.6592 269.150688 
L 411.9984 269.150688 
L 414.6768 264.747528 
L 416.016 262.986264 
L 417.3552 262.105632 
L 418.6944 262.105632 
L 420.0336 259.952976 
L 778.9392 259.952976 
L 778.9392 259.952976 
" style="fill:none;stroke:#2ca02c;stroke-dasharray:1.5,2.475;stroke-dashoffset:0;stroke-width:1.5;"/>
   </g>
   <g id="line2d_108">
    <path clip-path="url(#pdec2bf3409)" d="M 165.996477 649 
L 166.9248 646.354728 
L 169.6032 640.092456 
L 170.9424 639.603216 
L 172.2816 638.331192 
L 173.6208 636.863472 
L 176.2992 629.231328 
L 177.6384 626.002344 
L 178.9776 623.066904 
L 180.3168 622.577664 
L 182.9952 615.043368 
L 184.3344 611.814384 
L 185.6736 609.07464 
L 187.0128 608.683248 
L 189.6912 601.344648 
L 191.0304 598.115664 
L 192.3696 595.473768 
L 193.7088 594.495288 
L 195.048 593.321112 
L 196.3872 592.92972 
L 199.0656 585.786816 
L 200.4048 582.753528 
L 201.744 580.111632 
L 203.0832 579.72024 
L 205.7616 572.577336 
L 207.1008 569.641896 
L 208.44 567 
L 209.7792 566.706456 
L 212.4576 559.563552 
L 213.7968 556.823808 
L 215.136 555.845328 
L 216.4752 554.27976 
L 217.8144 551.637864 
L 219.1536 551.34432 
L 221.832 544.201416 
L 224.5104 539.015472 
L 225.8496 538.721928 
L 228.528 531.77472 
L 231.2064 526.686624 
L 232.5456 526.39308 
L 235.224 519.445872 
L 236.5632 517.488912 
L 237.9024 516.216888 
L 240.5808 511.324488 
L 241.92 511.030944 
L 244.5984 504.279432 
L 247.2768 499.48488 
L 248.616 499.191336 
L 251.2944 492.439824 
L 253.9728 487.74312 
L 255.312 487.449576 
L 256.6512 484.122744 
L 259.3296 480.795912 
L 260.6688 477.664776 
L 263.3472 472.968072 
L 264.6864 472.674528 
L 267.3648 466.21656 
L 268.704 463.77036 
L 270.0432 461.715552 
L 271.3824 461.519856 
L 274.0608 455.061888 
L 275.4 452.713536 
L 276.7392 450.756576 
L 278.0784 450.56088 
L 279.4176 449.386704 
L 280.7568 448.016832 
L 283.4352 441.656712 
L 284.7744 439.406208 
L 286.1136 437.449248 
L 287.4528 437.253552 
L 290.1312 430.893432 
L 291.4704 428.642928 
L 292.8096 426.685968 
L 294.1488 426.490272 
L 296.8272 420.130152 
L 298.1664 417.879648 
L 299.5056 416.020536 
L 300.8448 414.650664 
L 302.184 413.476488 
L 303.5232 413.37864 
L 304.8624 410.149656 
L 306.2016 407.214216 
L 307.5408 404.963712 
L 308.88 403.1046 
L 310.2192 403.006752 
L 312.8976 397.135872 
L 314.2368 394.885368 
L 315.576 393.221952 
L 316.9152 393.124104 
L 319.5936 387.44892 
L 320.9328 385.198416 
L 322.272 383.632848 
L 323.6112 382.262976 
L 324.9504 380.59956 
L 326.2896 380.501712 
L 328.968 374.826528 
L 330.3072 372.576024 
L 331.6464 371.010456 
L 332.9856 370.912608 
L 335.664 365.237424 
L 337.0032 362.98692 
L 338.3424 361.421352 
L 339.6816 361.323504 
L 341.0208 358.388064 
L 342.36 355.746168 
L 343.6992 353.593512 
L 346.3776 348.896808 
L 347.7168 347.33124 
L 349.056 347.233392 
L 351.7344 341.9496 
L 353.0736 339.699096 
L 354.4128 338.231376 
L 355.752 338.133528 
L 358.4304 332.947584 
L 359.7696 330.794928 
L 361.1088 329.522904 
L 362.448 329.425056 
L 363.7872 326.881008 
L 365.1264 325.021896 
L 366.4656 323.35848 
L 367.8048 320.814432 
L 369.144 318.759624 
L 370.4832 317.4876 
L 371.8224 317.389752 
L 374.5008 312.399504 
L 375.84 310.344696 
L 377.1792 309.072672 
L 378.5184 308.974824 
L 381.1968 303.984576 
L 382.536 302.125464 
L 383.8752 300.85344 
L 385.2144 300.85344 
L 387.8928 298.211544 
L 390.5712 293.710536 
L 391.9104 291.851424 
L 393.2496 290.5794 
L 394.5888 290.5794 
L 397.2672 286.17624 
L 398.6064 284.317128 
L 399.9456 283.142952 
L 401.2848 283.142952 
L 403.9632 278.739792 
L 405.3024 276.978528 
L 406.6416 276.000048 
L 407.9808 274.630176 
L 409.32 272.868912 
L 410.6592 272.868912 
L 413.3376 268.465752 
L 414.6768 266.802336 
L 416.016 265.921704 
L 417.3552 265.921704 
L 420.0336 261.616392 
L 421.3728 259.952976 
L 422.712 259.072344 
L 424.0512 259.072344 
L 426.7296 254.86488 
L 428.0688 253.299312 
L 429.408 251.244504 
L 430.7472 249.48324 
L 778.9392 249.48324 
L 778.9392 249.48324 
" style="fill:none;stroke:#d62728;stroke-dasharray:1.5,2.475;stroke-dashoffset:0;stroke-width:1.5;"/>
   </g>
   <g id="patch_3">
    <path d="M 108 567 
L 108 77.76 
" style="fill:none;stroke:#000000;stroke-linecap:square;stroke-linejoin:miter;stroke-width:0.8;"/>
   </g>
   <g id="patch_4">
    <path d="M 777.6 567 
L 777.6 77.76 
" style="fill:none;stroke:#000000;stroke-linecap:square;stroke-linejoin:miter;stroke-width:0.8;"/>
   </g>
   <g id="patch_5">
    <path d="M 108 567 
L 777.6 567 
" style="fill:none;stroke:#000000;stroke-linecap:square;stroke-linejoin:miter;stroke-width:0.8;"/>
   </g>
   <g id="patch_6">
    <path d="M 108 77.76 
L 777.6 77.76 
" style="fill:none;stroke:#000000;stroke-linecap:square;stroke-linejoin:miter;stroke-width:0.8;"/>
   </g>
   <g id="legend_1">
    <g id="patch_7">
     <path d="M 598.455 186.28 
L 766.4 186.28 
Q 769.6 186.28 769.6 183.08 
L 769.6 88.96 
Q 769.6 85.76 766.4 85.76 
L 598.455 85.76 
Q 595.255 85.76 595.255 88.96 
L 595.255 183.08 
Q 595.255 186.28 598.455 186.28 
z
" style="fill:#ffffff;opacity:0.8;stroke:#cccccc;stroke-linejoin:miter;"/>
    </g>
    <g id="line2d_109">
     <path d="M 601.655 98.7175 
L 633.655 98.7175 
" style="fill:none;stroke:#1f77b4;stroke-dasharray:1.5,2.475;stroke-dashoffset:0;stroke-width:1.5;"/>
    </g>
    <g id="line2d_110"/>
    <g id="text_15">
     <!-- D2D_Arranged -->
     <defs>
      <path d="M 19.671875 64.796875 
L 19.671875 8.109375 
L 31.59375 8.109375 
Q 46.6875 8.109375 53.6875 14.9375 
Q 60.6875 21.78125 60.6875 36.53125 
Q 60.6875 51.171875 53.6875 57.984375 
Q 46.6875 64.796875 31.59375 64.796875 
z
M 9.8125 72.90625 
L 30.078125 72.90625 
Q 51.265625 72.90625 61.171875 64.09375 
Q 71.09375 55.28125 71.09375 36.53125 
Q 71.09375 17.671875 61.125 8.828125 
Q 51.171875 0 30.078125 0 
L 9.8125 0 
z
" id="DejaVuSans-68"/>
      <path d="M 50.984375 -16.609375 
L 50.984375 -23.578125 
L -0.984375 -23.578125 
L -0.984375 -16.609375 
z
" id="DejaVuSans-95"/>
      <path d="M 45.40625 27.984375 
Q 45.40625 37.75 41.375 43.109375 
Q 37.359375 48.484375 30.078125 48.484375 
Q 22.859375 48.484375 18.828125 43.109375 
Q 14.796875 37.75 14.796875 27.984375 
Q 14.796875 18.265625 18.828125 12.890625 
Q 22.859375 7.515625 30.078125 7.515625 
Q 37.359375 7.515625 41.375 12.890625 
Q 45.40625 18.265625 45.40625 27.984375 
z
M 54.390625 6.78125 
Q 54.390625 -7.171875 48.1875 -13.984375 
Q 42 -20.796875 29.203125 -20.796875 
Q 24.46875 -20.796875 20.265625 -20.09375 
Q 16.0625 -19.390625 12.109375 -17.921875 
L 12.109375 -9.1875 
Q 16.0625 -11.328125 19.921875 -12.34375 
Q 23.78125 -13.375 27.78125 -13.375 
Q 36.625 -13.375 41.015625 -8.765625 
Q 45.40625 -4.15625 45.40625 5.171875 
L 45.40625 9.625 
Q 42.625 4.78125 38.28125 2.390625 
Q 33.9375 0 27.875 0 
Q 17.828125 0 11.671875 7.65625 
Q 5.515625 15.328125 5.515625 27.984375 
Q 5.515625 40.671875 11.671875 48.328125 
Q 17.828125 56 27.875 56 
Q 33.9375 56 38.28125 53.609375 
Q 42.625 51.21875 45.40625 46.390625 
L 45.40625 54.6875 
L 54.390625 54.6875 
z
" id="DejaVuSans-103"/>
      <path d="M 45.40625 46.390625 
L 45.40625 75.984375 
L 54.390625 75.984375 
L 54.390625 0 
L 45.40625 0 
L 45.40625 8.203125 
Q 42.578125 3.328125 38.25 0.953125 
Q 33.9375 -1.421875 27.875 -1.421875 
Q 17.96875 -1.421875 11.734375 6.484375 
Q 5.515625 14.40625 5.515625 27.296875 
Q 5.515625 40.1875 11.734375 48.09375 
Q 17.96875 56 27.875 56 
Q 33.9375 56 38.25 53.625 
Q 42.578125 51.265625 45.40625 46.390625 
z
M 14.796875 27.296875 
Q 14.796875 17.390625 18.875 11.75 
Q 22.953125 6.109375 30.078125 6.109375 
Q 37.203125 6.109375 41.296875 11.75 
Q 45.40625 17.390625 45.40625 27.296875 
Q 45.40625 37.203125 41.296875 42.84375 
Q 37.203125 48.484375 30.078125 48.484375 
Q 22.953125 48.484375 18.875 42.84375 
Q 14.796875 37.203125 14.796875 27.296875 
z
" id="DejaVuSans-100"/>
     </defs>
     <g transform="translate(646.455 104.3175)scale(0.16 -0.16)">
      <use xlink:href="#DejaVuSans-68"/>
      <use x="77.001953" xlink:href="#DejaVuSans-50"/>
      <use x="140.625" xlink:href="#DejaVuSans-68"/>
      <use x="217.626953" xlink:href="#DejaVuSans-95"/>
      <use x="267.626953" xlink:href="#DejaVuSans-65"/>
      <use x="336.035156" xlink:href="#DejaVuSans-114"/>
      <use x="375.398438" xlink:href="#DejaVuSans-114"/>
      <use x="416.511719" xlink:href="#DejaVuSans-97"/>
      <use x="477.791016" xlink:href="#DejaVuSans-110"/>
      <use x="541.169922" xlink:href="#DejaVuSans-103"/>
      <use x="604.646484" xlink:href="#DejaVuSans-101"/>
      <use x="666.169922" xlink:href="#DejaVuSans-100"/>
     </g>
    </g>
    <g id="line2d_111">
     <path d="M 601.655 122.6475 
L 633.655 122.6475 
" style="fill:none;stroke:#ff7f0e;stroke-dasharray:1.5,2.475;stroke-dashoffset:0;stroke-width:1.5;"/>
    </g>
    <g id="line2d_112"/>
    <g id="text_16">
     <!-- TDCR_only_20 -->
     <defs>
      <path d="M -0.296875 72.90625 
L 61.375 72.90625 
L 61.375 64.59375 
L 35.5 64.59375 
L 35.5 0 
L 25.59375 0 
L 25.59375 64.59375 
L -0.296875 64.59375 
z
" id="DejaVuSans-84"/>
      <path d="M 64.40625 67.28125 
L 64.40625 56.890625 
Q 59.421875 61.53125 53.78125 63.8125 
Q 48.140625 66.109375 41.796875 66.109375 
Q 29.296875 66.109375 22.65625 58.46875 
Q 16.015625 50.828125 16.015625 36.375 
Q 16.015625 21.96875 22.65625 14.328125 
Q 29.296875 6.6875 41.796875 6.6875 
Q 48.140625 6.6875 53.78125 8.984375 
Q 59.421875 11.28125 64.40625 15.921875 
L 64.40625 5.609375 
Q 59.234375 2.09375 53.4375 0.328125 
Q 47.65625 -1.421875 41.21875 -1.421875 
Q 24.65625 -1.421875 15.125 8.703125 
Q 5.609375 18.84375 5.609375 36.375 
Q 5.609375 53.953125 15.125 64.078125 
Q 24.65625 74.21875 41.21875 74.21875 
Q 47.75 74.21875 53.53125 72.484375 
Q 59.328125 70.75 64.40625 67.28125 
z
" id="DejaVuSans-67"/>
      <path d="M 30.609375 48.390625 
Q 23.390625 48.390625 19.1875 42.75 
Q 14.984375 37.109375 14.984375 27.296875 
Q 14.984375 17.484375 19.15625 11.84375 
Q 23.34375 6.203125 30.609375 6.203125 
Q 37.796875 6.203125 41.984375 11.859375 
Q 46.1875 17.53125 46.1875 27.296875 
Q 46.1875 37.015625 41.984375 42.703125 
Q 37.796875 48.390625 30.609375 48.390625 
z
M 30.609375 56 
Q 42.328125 56 49.015625 48.375 
Q 55.71875 40.765625 55.71875 27.296875 
Q 55.71875 13.875 49.015625 6.21875 
Q 42.328125 -1.421875 30.609375 -1.421875 
Q 18.84375 -1.421875 12.171875 6.21875 
Q 5.515625 13.875 5.515625 27.296875 
Q 5.515625 40.765625 12.171875 48.375 
Q 18.84375 56 30.609375 56 
z
" id="DejaVuSans-111"/>
     </defs>
     <g transform="translate(646.455 128.2475)scale(0.16 -0.16)">
      <use xlink:href="#DejaVuSans-84"/>
      <use x="61.083984" xlink:href="#DejaVuSans-68"/>
      <use x="138.085938" xlink:href="#DejaVuSans-67"/>
      <use x="207.910156" xlink:href="#DejaVuSans-82"/>
      <use x="277.392578" xlink:href="#DejaVuSans-95"/>
      <use x="327.392578" xlink:href="#DejaVuSans-111"/>
      <use x="388.574219" xlink:href="#DejaVuSans-110"/>
      <use x="451.953125" xlink:href="#DejaVuSans-108"/>
      <use x="479.736328" xlink:href="#DejaVuSans-121"/>
      <use x="538.916016" xlink:href="#DejaVuSans-95"/>
      <use x="588.916016" xlink:href="#DejaVuSans-50"/>
      <use x="652.539062" xlink:href="#DejaVuSans-48"/>
     </g>
    </g>
    <g id="line2d_113">
     <path d="M 601.655 146.5775 
L 633.655 146.5775 
" style="fill:none;stroke:#2ca02c;stroke-dasharray:1.5,2.475;stroke-dashoffset:0;stroke-width:1.5;"/>
    </g>
    <g id="line2d_114"/>
    <g id="text_17">
     <!-- TDCR_only_25 -->
     <g transform="translate(646.455 152.1775)scale(0.16 -0.16)">
      <use xlink:href="#DejaVuSans-84"/>
      <use x="61.083984" xlink:href="#DejaVuSans-68"/>
      <use x="138.085938" xlink:href="#DejaVuSans-67"/>
      <use x="207.910156" xlink:href="#DejaVuSans-82"/>
      <use x="277.392578" xlink:href="#DejaVuSans-95"/>
      <use x="327.392578" xlink:href="#DejaVuSans-111"/>
      <use x="388.574219" xlink:href="#DejaVuSans-110"/>
      <use x="451.953125" xlink:href="#DejaVuSans-108"/>
      <use x="479.736328" xlink:href="#DejaVuSans-121"/>
      <use x="538.916016" xlink:href="#DejaVuSans-95"/>
      <use x="588.916016" xlink:href="#DejaVuSans-50"/>
      <use x="652.539062" xlink:href="#DejaVuSans-53"/>
     </g>
    </g>
    <g id="line2d_115">
     <path d="M 601.655 170.5075 
L 633.655 170.5075 
" style="fill:none;stroke:#d62728;stroke-dasharray:1.5,2.475;stroke-dashoffset:0;stroke-width:1.5;"/>
    </g>
    <g id="line2d_116"/>
    <g id="text_18">
     <!-- TDCR_only_30 -->
     <g transform="translate(646.455 176.1075)scale(0.16 -0.16)">
      <use xlink:href="#DejaVuSans-84"/>
      <use x="61.083984" xlink:href="#DejaVuSans-68"/>
      <use x="138.085938" xlink:href="#DejaVuSans-67"/>
      <use x="207.910156" xlink:href="#DejaVuSans-82"/>
      <use x="277.392578" xlink:href="#DejaVuSans-95"/>
      <use x="327.392578" xlink:href="#DejaVuSans-111"/>
      <use x="388.574219" xlink:href="#DejaVuSans-110"/>
      <use x="451.953125" xlink:href="#DejaVuSans-108"/>
      <use x="479.736328" xlink:href="#DejaVuSans-121"/>
      <use x="538.916016" xlink:href="#DejaVuSans-95"/>
      <use x="588.916016" xlink:href="#DejaVuSans-51"/>
      <use x="652.539062" xlink:href="#DejaVuSans-48"/>
     </g>
    </g>
   </g>
  </g>
 </g>
 <defs>
  <clipPath id="pdec2bf3409">
   <rect height="489.24" width="669.6" x="108" y="77.76"/>
  </clipPath>
 </defs>
</svg>
